<svg width="1056" height="256" viewBox="0 0 1056 256" fill="none" xmlns="http://www.w3.org/2000/svg">
<g clip-path="url(#clip0_3013_9203)">
<path d="M640.05 109.102C625.797 109.102 613.256 115.805 608.12 126.157L606.793 128.789L604.767 111.243H578.252V256.175H606.479V191.815L608.12 195.114C613.256 205.466 625.797 212.169 640.05 212.169C667.507 212.169 688.188 190.026 688.188 160.653C688.188 131.281 667.507 109.102 640.05 109.102ZM634.705 185.429C628.136 185.429 621.836 182.807 617.191 178.141C612.546 173.475 609.937 167.147 609.937 160.548C609.937 153.949 612.546 147.621 617.191 142.955C621.836 138.289 628.136 135.667 634.705 135.667C641.274 135.667 647.573 138.289 652.218 142.955C656.863 147.621 659.472 153.949 659.472 160.548C659.472 167.147 656.863 173.475 652.218 178.141C647.573 182.807 641.274 185.429 634.705 185.429Z" fill="#FCFCFC"/>
<path d="M739.819 212.169C760.779 212.169 782.019 203.01 782.019 182.551C782.019 168.163 772.272 157.986 752.255 151.705C748.133 150.336 744.57 149.213 741.566 148.195C728.431 143.984 724.868 142.861 724.868 138.861C724.868 134.86 730.597 132.193 736.256 132.193C740.762 132.193 748.343 133.913 749.146 140.159H777.617C776.674 121.806 759.417 109.032 735.278 109.032C710.056 109.032 696.467 124.403 696.467 138.861C696.467 153.319 706.178 163.11 726.964 168.9L733.496 170.69C748.692 174.901 753.792 176.305 753.792 181.884C753.792 187.464 746.596 188.903 740.413 188.903C730.143 188.903 722.946 185.183 721.828 179.322H693.532C694.511 200.273 711.348 212.169 739.819 212.169Z" fill="#FCFCFC"/>
<path d="M1016.35 135.667C1019.45 135.736 1022.51 136.403 1025.36 137.633L1029.1 112.752C1026.02 110.384 1022.22 109.145 1018.34 109.243C1011.36 109.243 1004.54 113.033 997.942 120.507L996.719 121.911L995.147 111.383H968.633V210.169H996.824V170.409C996.824 147.985 1003.74 135.667 1016.35 135.667Z" fill="#FCFCFC"/>
<path d="M855.588 111.103H832.008V81.2037H803.782V111.103H787.119V137.668H803.782V210.169H832.008V137.668H855.588V111.103Z" fill="#FCFCFC"/>
<path d="M957.349 162.022C957.349 131.351 936.634 109.102 908.058 109.102C879.483 109.102 858.732 130.544 858.732 160.022C858.732 190.236 880.216 212.169 909.84 212.169C936.738 212.169 952.458 193.395 955.253 179.533L930.8 176.901C928.404 180.203 925.244 182.869 921.591 184.666C917.939 186.464 913.905 187.34 909.84 187.218C893.77 187.218 887.413 178.235 886.784 169.883V168.935H957.244L957.349 162.022ZM886.889 150.161V149.213C887.552 140.44 896.425 134.053 907.849 134.053C920.914 134.053 928.319 141.668 928.809 149.213V150.161H886.889Z" fill="#FCFCFC"/>
<path d="M536.088 111.103L534.062 128.649L532.769 126.017C527.599 115.489 515.303 108.962 501.015 108.962C473.452 108.962 452.702 131.105 452.702 160.513C452.702 189.92 473.452 212.029 501.015 212.029C514.988 212.029 527.599 205.326 532.769 194.974L534.062 192.342L536.088 209.888H562.637V111.103H536.088ZM506.15 185.429C501.25 185.415 496.464 183.941 492.398 181.194C488.332 178.447 485.168 174.55 483.308 169.996C481.447 165.443 480.973 160.437 481.945 155.612C482.917 150.788 485.291 146.361 488.769 142.893C492.246 139.424 496.669 137.07 501.478 136.128C506.288 135.185 511.267 135.697 515.787 137.598C520.307 139.5 524.163 142.705 526.869 146.809C529.575 150.913 531.008 155.731 530.988 160.653C531.06 163.942 530.466 167.21 529.241 170.261C528.016 173.311 526.186 176.079 523.863 178.397C521.54 180.715 518.771 182.533 515.726 183.742C512.681 184.951 509.423 185.525 506.15 185.429Z" fill="#FCFCFC"/>
<path d="M1046.64 195.29C1046.67 194.499 1046.54 193.711 1046.24 192.977C1045.95 192.244 1045.5 191.581 1044.93 191.033C1044.37 190.486 1043.69 190.066 1042.95 189.801C1042.2 189.537 1041.41 189.434 1040.63 189.499H1034.69V206.379H1037.94V201.08H1039.86L1042.94 206.168H1046.78L1043.11 200.483C1044.16 200.095 1045.07 199.386 1045.7 198.455C1046.34 197.524 1046.66 196.417 1046.64 195.29ZM1040.63 197.851H1037.94V192.693H1040.63C1040.99 192.639 1041.36 192.668 1041.71 192.777C1042.06 192.885 1042.38 193.071 1042.65 193.32C1042.91 193.569 1043.12 193.875 1043.26 194.216C1043.39 194.557 1043.45 194.924 1043.42 195.29C1043.43 195.649 1043.36 196.006 1043.22 196.337C1043.08 196.668 1042.87 196.964 1042.61 197.207C1042.34 197.449 1042.03 197.632 1041.69 197.743C1041.35 197.855 1040.99 197.891 1040.63 197.851Z" fill="#FCFCFC"/>
<path d="M1040.21 182.27C1037.09 182.27 1034.04 183.201 1031.44 184.943C1028.84 186.686 1026.82 189.164 1025.62 192.062C1024.43 194.96 1024.12 198.15 1024.72 201.227C1025.33 204.303 1026.84 207.13 1029.05 209.348C1031.25 211.566 1034.07 213.077 1037.13 213.689C1040.19 214.301 1043.37 213.987 1046.25 212.786C1049.14 211.586 1051.6 209.553 1053.34 206.944C1055.07 204.336 1056 201.269 1056 198.132C1056 193.925 1054.34 189.891 1051.38 186.916C1048.41 183.941 1044.4 182.27 1040.21 182.27ZM1040.21 210.73C1037.72 210.737 1035.28 210.001 1033.21 208.616C1031.14 207.23 1029.52 205.258 1028.56 202.948C1027.61 200.638 1027.36 198.095 1027.84 195.641C1028.32 193.187 1029.52 190.933 1031.28 189.164C1033.04 187.395 1035.29 186.191 1037.73 185.705C1040.17 185.218 1042.71 185.472 1045 186.432C1047.3 187.393 1049.27 189.017 1050.65 191.1C1052.03 193.183 1052.76 195.63 1052.75 198.132C1052.74 201.47 1051.42 204.669 1049.07 207.03C1046.72 209.391 1043.53 210.721 1040.21 210.73Z" fill="#FCFCFC"/>
<path d="M441.034 210.169V70.4303H412.808V163.355L346.225 70.4303H317.615V210.169H345.806V117.279L412.389 210.169H441.034Z" fill="#FCFCFC"/>
<path d="M228.779 42.9178C226.327 42.9157 223.877 43.068 221.443 43.374H220.954L220.64 42.988C210.46 29.6078 197.347 18.7651 182.319 11.3022C167.29 3.83927 150.752 -0.0429688 133.988 -0.0429688C117.223 -0.0429688 100.685 3.83927 85.6567 11.3022C70.6286 18.7651 57.5153 29.6078 47.3355 42.988L47.056 43.374H46.5669C44.1217 43.069 41.66 42.9167 39.196 42.9178H24.4541V70.3953L23.9651 70.6409C16.8519 73.9985 10.8372 79.3209 6.62419 85.9857C2.41114 92.6506 0.173828 100.383 0.173828 108.278C0.173828 116.173 2.41114 123.905 6.62419 130.57C10.8372 137.234 16.8519 142.557 23.9651 145.914L24.4541 146.125V146.686C24.4541 175.911 36.0108 203.938 56.5818 224.603C77.1528 245.268 105.053 256.877 134.145 256.877C163.237 256.877 191.137 245.268 211.708 224.603C232.279 203.938 243.836 175.911 243.836 146.686V146.125L244.325 145.914C251.438 142.557 257.452 137.234 261.665 130.57C265.879 123.905 268.116 116.173 268.116 108.278C268.116 100.383 265.879 92.6506 261.665 85.9857C257.452 79.3209 251.438 73.9985 244.325 70.6409L243.836 70.3953V42.9178H228.779ZM76.0507 51.9015C83.635 44.2091 92.6617 38.1029 102.609 33.9356C112.556 29.7684 123.227 27.6227 134.005 27.6227C144.783 27.6227 155.454 29.7684 165.401 33.9356C175.349 38.1029 184.375 44.2091 191.96 51.9015L192.763 52.7437L191.75 53.3052C187.58 55.6045 183.576 58.1961 179.768 61.0606L179.314 61.3765L178.86 61.1308C164.966 53.9773 149.616 50.1461 134.005 49.9363C118.395 50.1461 103.044 53.9773 89.1507 61.1308L88.6616 61.3765L88.2424 61.0606C84.4226 58.1957 80.407 55.6042 76.2253 53.3052L75.2123 52.6384L76.0507 51.9015ZM213.863 145.774C213.863 167.05 205.449 187.455 190.473 202.499C175.497 217.544 155.185 225.996 134.005 225.996C112.826 225.996 92.5134 217.544 77.5372 202.499C62.561 187.455 54.1475 167.05 54.1475 145.774V76.0451L55.2304 76.3259C69.2038 79.8351 82.4435 95.2408 85.5176 98.9957C91.9365 92.746 99.5296 87.8425 107.854 84.571C116.179 81.2995 125.069 79.7254 134.005 79.9404C142.942 79.7254 151.831 81.2995 160.156 84.571C168.481 87.8425 176.074 92.746 182.493 98.9957C185.532 95.2408 198.667 79.8351 212.78 76.3259L213.863 76.0451V145.774Z" fill="#FCFCFC"/>
</g>
<defs>
<clipPath id="clip0_3013_9203">
<rect width="1056" height="256" fill="white"/>
</clipPath>
</defs>
</svg>
